<?xml version="1.0" encoding="UTF-8"?> <svg xmlns="http://www.w3.org/2000/svg" width="195.44" height="172.973" viewBox="0 0 195.44 172.973"><defs><clipPath id="ai78uujl3a"><path data-name="Rectangle 1356" style="fill:none" d="M0 0h195.44v172.973H0z"></path></clipPath></defs><g data-name="Group 1353"><g data-name="Group 1351" style="clip-path:url(#ai78uujl3a)"><path data-name="Path 997" d="M89.322 172.973a14.8 14.8 0 0 1-10.774-4.636 14.835 14.835 0 0 1-20.818-5.587 14.822 14.822 0 0 1-18.671-10.805 9.137 9.137 0 0 1-.468.012 14.739 14.739 0 0 1-14.732-15.219 14.806 14.806 0 0 1-10.8-18.659 14.829 14.829 0 0 1-5.584-20.815 14.833 14.833 0 0 1 0-21.551 14.832 14.832 0 0 1 5.583-20.818 14.806 14.806 0 0 1 10.8-18.659A14.732 14.732 0 0 1 38.587 21.02c.158 0 .317 0 .472.008A14.815 14.815 0 0 1 57.73 10.223 14.829 14.829 0 0 1 78.548 4.64a14.828 14.828 0 0 1 21.547 0 14.83 14.83 0 0 1 20.818 5.583 14.816 14.816 0 0 1 18.667 10.805c.158-.008.317-.008.472-.008a14.732 14.732 0 0 1 14.732 15.215 14.813 14.813 0 0 1 10.8 18.659 14.832 14.832 0 0 1 5.583 20.818 14.833 14.833 0 0 1 0 21.551 14.827 14.827 0 0 1-5.583 20.814 14.809 14.809 0 0 1-10.8 18.659 14.733 14.733 0 0 1-14.732 15.219c-.158 0-.313 0-.468-.012a14.815 14.815 0 0 1-18.671 10.805 14.829 14.829 0 0 1-20.818 5.583 14.792 14.792 0 0 1-10.774 4.64" transform="translate(8.398 .002)" style="fill:#fff"></path><path data-name="Path 998" d="M160.272 93.084c.048-.305.079-.61.115-.915a9.875 9.875 0 0 0 0-18.758c-.036-.305-.067-.61-.115-.915a9.874 9.874 0 0 0-4.838-18.112c-.119-.293-.226-.59-.349-.884a9.872 9.872 0 0 0-9.391-16.214c-.2-.258-.4-.507-.594-.761a9.822 9.822 0 0 0-13.207-13.207c-.258-.2-.507-.4-.761-.594a9.875 9.875 0 0 0-16.214-9.395c-.3-.123-.594-.23-.888-.349a9.875 9.875 0 0 0-18.111-4.837 71.43 71.43 0 0 0-.915-.115 9.877 9.877 0 0 0-18.758 0c-.305.036-.61.075-.915.115a9.878 9.878 0 0 0-18.116 4.838c-.289.119-.59.226-.88.349a9.877 9.877 0 0 0-16.218 9.395c-.254.194-.5.4-.761.594a9.822 9.822 0 0 0-13.2 13.207c-.194.254-.4.5-.6.761A9.874 9.874 0 0 0 16.164 53.5c-.123.293-.226.59-.349.884A9.877 9.877 0 0 0 10.978 72.5l-.119.915a9.879 9.879 0 0 0 0 18.758l.119.915a9.88 9.88 0 0 0 4.838 18.112c.123.289.226.59.349.88a9.876 9.876 0 0 0 9.39 16.22c.2.258.4.5.6.761a9.821 9.821 0 0 0 13.2 13.2c.258.2.507.4.761.6a9.876 9.876 0 0 0 16.218 9.391c.289.123.59.23.88.349a9.878 9.878 0 0 0 18.116 4.838c.305.044.61.079.915.119a9.877 9.877 0 0 0 18.758 0c.305-.04.61-.075.915-.119a9.875 9.875 0 0 0 18.112-4.838c.293-.119.59-.226.888-.349a9.874 9.874 0 0 0 16.214-9.391c.254-.194.5-.4.761-.6a9.821 9.821 0 0 0 13.207-13.2c.2-.258.4-.5.594-.761a9.875 9.875 0 0 0 9.391-16.218c.123-.289.23-.59.349-.88a9.877 9.877 0 0 0 4.838-18.116" transform="translate(12.095 3.699)" style="fill:#ffa136"></path><path data-name="Path 999" d="M169.023 87.353a48.793 48.793 0 0 1-15.711-3.178 154.865 154.865 0 0 0-111.184 0 48.771 48.771 0 0 1-15.711 3.178c-8.594 0-11.3-4.351-12.149-6.946L.083 32.379a1.975 1.975 0 0 1 2.029-2.532l4.248.285q1.331.089 2.675.091a39.759 39.759 0 0 0 14.391-2.7 205.428 205.428 0 0 1 148.593 0 39.8 39.8 0 0 0 14.387 2.694c.9 0 1.783-.032 2.675-.091l4.248-.285a1.975 1.975 0 0 1 2.029 2.532l-14.143 47.899c-.892 2.726-3.6 7.081-12.192 7.081" transform="translate(0 40.352)" style="fill:#fff"></path><path data-name="Path 1000" d="M93.214 65.214a160.064 160.064 0 0 0-57.359 10.647c-5.4 2.068-19.356 5.547-21.4-.685L1.521 31.367A44.722 44.722 0 0 0 20.7 28.439a200.5 200.5 0 0 1 145.023 0 44.722 44.722 0 0 0 19.182 2.928L171.97 75.175c-2.041 6.233-16 2.754-21.4.685a160.064 160.064 0 0 0-57.356-10.646" transform="translate(4.506 44.046)" style="fill:#d8000b"></path><path data-name="Path 1001" d="M18.2 50.164a10.017 10.017 0 0 1-3.717-2.29.84.84 0 0 1-.1-1.209l1.731-2.165a.691.691 0 0 1 1.165-.091 6.862 6.862 0 0 0 1.985 1.236 3.485 3.485 0 0 0 2.255.067 3.084 3.084 0 0 0 2.064-1.553 3.377 3.377 0 0 0 .206-2.5 6.114 6.114 0 0 0-3.637-3.759l-4.882-2.448a13.193 13.193 0 0 1-3.744-2.58 8.993 8.993 0 0 1-2.461-7.025 7.622 7.622 0 0 1 .872-2.821 6.79 6.79 0 0 1 1.945-2.226 8.5 8.5 0 0 1 2.908-1.391 6.929 6.929 0 0 1 4.1.036 8.929 8.929 0 0 1 3.344 1.938.823.823 0 0 1 .052 1.173l-1.747 2.128q-.511.642-1.216.059a4.362 4.362 0 0 0-1.526-.884 2.966 2.966 0 0 0-1.68.028 2.848 2.848 0 0 0-1.839 1.375 2.9 2.9 0 0 0-.226 2.255 4.2 4.2 0 0 0 1.276 2.072 9.966 9.966 0 0 0 2.409 1.529l4.87 2.409a12.506 12.506 0 0 1 3.737 2.7 9.221 9.221 0 0 1 2.089 3.873 9.015 9.015 0 0 1 .309 3.368 7.738 7.738 0 0 1-.919 2.972 7.431 7.431 0 0 1-2.013 2.314 8.559 8.559 0 0 1-2.964 1.43 7.722 7.722 0 0 1-4.648-.024" transform="translate(26.715 56.632)" style="fill:#fff"></path><path data-name="Path 1002" d="m19.7 49.5-4.829-28.786a.743.743 0 0 1 .689-.967l12-2.013a.738.738 0 0 1 .967.685l.468 2.782a.742.742 0 0 1-.689.967l-8.131 1.367 1.391 8.258 6.605-1.109a.745.745 0 0 1 .967.689l.468 2.782a.744.744 0 0 1-.685.967l-6.609 1.109 1.482 8.869 8.131-1.363a.739.739 0 0 1 .967.685l.468 2.782a.743.743 0 0 1-.689.967l-12 2.013a.739.739 0 0 1-.971-.684" transform="translate(43.994 52.477)" style="fill:#fff"></path><path data-name="Path 1003" d="m22.011 47.587-.971-29.174a.74.74 0 0 1 .808-.864l7.049-.234a9.153 9.153 0 0 1 4.664.947 8.864 8.864 0 0 1 3.3 3.019 15.013 15.013 0 0 1 2.013 4.81 31.1 31.1 0 0 1 .808 6.3 31.18 31.18 0 0 1-.384 6.344 15.019 15.019 0 0 1-1.688 4.929 8.959 8.959 0 0 1-3.091 3.237 9.228 9.228 0 0 1-4.592 1.256l-7.049.234a.741.741 0 0 1-.868-.808m9.8-4.541a4.477 4.477 0 0 0 1.7-1.91 11.327 11.327 0 0 0 1.01-3.431 28.151 28.151 0 0 0 .226-5.147 28.322 28.322 0 0 0-.567-5.119 11.359 11.359 0 0 0-1.24-3.356 4.448 4.448 0 0 0-1.823-1.791 4.859 4.859 0 0 0-2.334-.475l-2.861.1.729 21.86 2.865-.1a4.921 4.921 0 0 0 2.294-.63" transform="translate(62.324 51.272)" style="fill:#fff"></path><path data-name="Path 1004" d="m27.743 47.264 2.71-29.048a.738.738 0 0 1 .907-.757l3.075.285a.741.741 0 0 1 .757.911L32.482 47.7a.737.737 0 0 1-.911.757l-3.071-.282a.741.741 0 0 1-.757-.911" transform="translate(82.165 51.702)" style="fill:#fff"></path><path data-name="Path 1005" d="m32.521 48.267 4.723-25.082-4.944-.931a.74.74 0 0 1-.666-.979l.519-2.77a.741.741 0 0 1 .979-.67l14.6 2.75a.74.74 0 0 1 .666.979l-.523 2.77A.738.738 0 0 1 46.9 25l-4.985-.939L37.2 49.147a.743.743 0 0 1-.979.67l-3.035-.571a.741.741 0 0 1-.666-.979" transform="translate(93.649 52.767)" style="fill:#fff"></path><path data-name="Path 1006" d="m49.168 50.208.063-4.481-7.449-2.171-2.354 3.816a.926.926 0 0 1-1.129.408l-3.174-.927c-.622-.178-.761-.543-.416-1.086L51.652 19.75a.93.93 0 0 1 1.129-.4l.127.036a.927.927 0 0 1 .733.951l.329 31.045q-.006.963-.939.689l-3.13-.911a.922.922 0 0 1-.733-.947m.19-18.635-.087-.024-5 8.048 4.993 1.454z" transform="translate(102.274 57.154)" style="fill:#fff"></path><path data-name="Path 1007" d="M22.615 11.657c-.816.008-1.415-.091-1.6-.622-.2-.567.186-1.153 1.137-1.49 1.1-.388 1.823.012 2.536-.242a.843.843 0 0 0 .606-1.141 1.1 1.1 0 0 0-.8-.682 5.383 5.383 0 0 0-2.817.329c-2.405.856-3.285 2.445-2.734 4.006.571 1.6 1.739 1.961 3.594 1.942 1.359-.02 2.75-.17 3.043.65.17.487 0 1.248-1.22 1.68-1.284.456-2.2-.036-2.837.19a.858.858 0 0 0-.63 1.157 1.276 1.276 0 0 0 1.05.733A6.4 6.4 0 0 0 25 17.839c2.1-.745 3.265-2.425 2.583-4.343-.725-2.049-2.37-1.942-4.969-1.839" transform="translate(55.621 21.926)" style="fill:#d8000b"></path><path data-name="Path 1008" d="M22.249 6.986a.982.982 0 0 0-.792 1.248l1.506 8.02a1.007 1.007 0 1 0 1.973-.372l-1.51-8.02a.967.967 0 0 0-1.177-.876" transform="translate(63.489 20.63)" style="fill:#d8000b"></path><path data-name="Path 1009" d="M30.637 6.629a.98.98 0 0 0-.955 1.129l.341 5.987h-.032l-4.268-5.483c-.823-1.062-1.149-1.332-1.806-1.3-.559.028-.943.468-.9 1.308l.392 7.968a.984.984 0 0 0 1.066 1.026.971.971 0 0 0 .939-1.129l-.333-5.864h.028l3.729 4.783c1.216 1.569 1.656 1.914 2.286 1.882.614-.032 1-.472.959-1.312l-.4-7.964a.965.965 0 0 0-1.046-1.03" transform="translate(68.165 19.635)" style="fill:#d8000b"></path><path data-name="Path 1010" d="M32.166 6.9c-3.384-.507-5.726 1.323-6.189 4.4a5.138 5.138 0 0 0 4.623 6.02 3.732 3.732 0 0 0 1.961-.143 1.062 1.062 0 0 0 .721-.828.773.773 0 0 0-.642-.931c-.567-.087-.9.162-1.8.028a3.193 3.193 0 0 1-2.827-3.846 3.152 3.152 0 0 1 3.832-2.841c.733.111 1.133.456 1.632.531a.823.823 0 0 0 .995-.757 1.008 1.008 0 0 0-.416-.915 4.3 4.3 0 0 0-1.89-.721" transform="translate(76.752 20.19)" style="fill:#d8000b"></path><path data-name="Path 1011" d="m36.249 8.66-4.16-1.3a.933.933 0 0 0-1.3.682L28.332 15.9a.934.934 0 0 0 .682 1.3l4.212 1.319a.839.839 0 0 0 1.094-.586.868.868 0 0 0-.582-1.137l-3.267-1.016.721-2.358 2.889.9a.839.839 0 0 0 1.094-.586.865.865 0 0 0-.582-1.137l-2.865-.892.721-2.358 3.293 1.026a.83.83 0 0 0 1.09-.582.861.861 0 0 0-.582-1.137" transform="translate(83.728 21.599)" style="fill:#d8000b"></path><path data-name="Path 1012" d="M21.524 36.088a1.033 1.033 0 0 1-.353.055.934.934 0 0 1-.967-1.022.945.945 0 0 1 .674-.951l2.342-.844a1.469 1.469 0 0 1 .46-.083.792.792 0 0 1 .856.812v8.269a1 1 0 0 1-1.022 1.121 1.017 1.017 0 0 1-1.05-1.121v-6.573z" transform="translate(59.855 98.48)" style="fill:#d8000b"></path><path data-name="Path 1013" d="M25.4 40.251a3.217 3.217 0 0 1-3.364-3.4 3.678 3.678 0 0 1 3.954-3.657 3.645 3.645 0 0 1 3.95 3.685 5.8 5.8 0 0 1-1.193 3.431l-1.795 2.77a.97.97 0 0 1-.943.6.9.9 0 0 1-.979-.852 1.015 1.015 0 0 1 .17-.547l1.454-2.259h-.028a2.979 2.979 0 0 1-1.232.226m.6-1.569a1.741 1.741 0 0 0 1.894-1.835A1.907 1.907 0 1 0 26 38.682" transform="translate(65.264 98.323)" style="fill:#d8000b"></path><path data-name="Path 1014" d="M25.92 39.031c-.547 0-.828-.353-.757-1.066l.293-2.956c.143-1.415.634-1.795 1.866-1.795h3.752a.91.91 0 0 1 .9.955.859.859 0 0 1-.868.911h-3.827l-.222 2.029a9.773 9.773 0 0 1 1.371-.1c2.1 0 3.713.979 3.713 3.194 0 2.326-1.7 3.42-3.994 3.42a4.9 4.9 0 0 1-3-.84 1.126 1.126 0 0 1-.519-.911.831.831 0 0 1 .824-.856c.8 0 1.137.7 2.5.745 1.316 0 2.06-.436 2.06-1.585 0-1.248-1.248-1.319-2.171-1.319-.674 0-1.359.17-1.922.17" transform="translate(72.969 98.394)" style="fill:#d8000b"></path><path data-name="Path 1015" d="M27.691 42.87a1.126 1.126 0 0 1-.519-.911A.834.834 0 0 1 28 41.1c.8 0 1.133.7 2.492.745 1.01 0 1.739-.337 1.739-1.347s-.8-1.288-1.922-1.288h-.951a.879.879 0 0 1-.872-.884.909.909 0 0 1 .9-.911h.868c.923 0 1.708-.293 1.708-1.272 0-.8-.475-1.094-1.47-1.094-1.359.04-1.7.741-2.492.741a.831.831 0 0 1-.828-.852 1.126 1.126 0 0 1 .519-.911 5.138 5.138 0 0 1 3.067-.844c1.835 0 3.42.844 3.42 2.746a2.466 2.466 0 0 1-1.636 2.3v.028a2.474 2.474 0 0 1 1.934 2.465c0 1.906-1.557 2.984-3.784 2.984a4.911 4.911 0 0 1-3-.84" transform="translate(80.493 98.311)" style="fill:#d8000b"></path></g></g></svg> 